<?xml version="1.0" encoding="UTF-8" standalone="no"?>
<!DOCTYPE svg PUBLIC "-//W3C//DTD SVG 1.1//EN" "http://www.w3.org/Graphics/SVG/1.1/DTD/svg11.dtd">
<svg width="100%" height="100%" viewBox="0 0 52 51" version="1.1" xmlns="http://www.w3.org/2000/svg" xmlns:xlink="http://www.w3.org/1999/xlink" xml:space="preserve" xmlns:serif="http://www.serif.com/" style="fill-rule:evenodd;clip-rule:evenodd;stroke-linejoin:round;stroke-miterlimit:2;">
    <g transform="matrix(3.0134,0,0,3.0134,-2.65937,-17.0682)">
        <path d="M8.395,5.838C8.576,5.989 8.667,6.193 8.667,6.449L8.667,8.146C8.667,8.342 8.61,8.512 8.497,8.655C8.384,8.799 8.229,8.893 8.033,8.938C7.068,9.134 6.245,9.595 5.567,10.319C4.646,11.284 4.186,12.54 4.186,14.086C4.186,15.633 4.646,16.896 5.567,17.877C6.245,18.586 7.068,19.038 8.033,19.234C8.229,19.28 8.384,19.374 8.497,19.517C8.61,19.66 8.667,19.83 8.667,20.026L8.667,21.723C8.667,21.965 8.576,22.168 8.395,22.334C8.229,22.455 8.056,22.515 7.875,22.515L7.739,22.515C5.989,22.229 4.488,21.437 3.236,20.139C1.667,18.525 0.883,16.515 0.883,14.109C0.883,11.703 1.667,9.677 3.236,8.033C4.458,6.766 5.959,5.981 7.739,5.68C7.98,5.635 8.199,5.687 8.395,5.838ZM15.501,8.033C17.069,9.677 17.854,11.703 17.854,14.109C17.854,16.515 17.069,18.525 15.501,20.139C14.248,21.437 12.747,22.229 10.997,22.515L10.862,22.515C10.681,22.515 10.507,22.455 10.341,22.334C10.16,22.168 10.07,21.965 10.07,21.723L10.07,20.026C10.07,19.83 10.126,19.66 10.239,19.517C10.353,19.374 10.507,19.28 10.703,19.234C11.669,19.038 12.491,18.586 13.17,17.877C14.09,16.896 14.55,15.633 14.55,14.086C14.55,12.54 14.09,11.284 13.17,10.319C12.491,9.595 11.669,9.134 10.703,8.938C10.507,8.893 10.353,8.799 10.239,8.655C10.126,8.512 10.07,8.342 10.07,8.146L10.07,6.449C10.07,6.193 10.164,5.989 10.353,5.838C10.541,5.687 10.756,5.635 10.997,5.68C12.778,5.981 14.279,6.766 15.501,8.033Z" style="fill:rgb(17,17,17);fill-rule:nonzero;"/>
    </g>
</svg>
